<svg id="Ebene_1" data-name="Ebene 1" xmlns="http://www.w3.org/2000/svg" viewBox="0 0 736.36 937.12"><defs><style>.cls-1{fill:#00286a;}.cls-2{fill:#11286a;}</style></defs><g id="_8QS7GJ.tif" data-name="8QS7GJ.tif"><path class="cls-1" d="M1077.06,1016.87c-19,5-79.85,15-98.58,19.84a36.06,36.06,0,0,1-8,1.31c-14.1.4-24.84,3.68-33.4,18.88-11.66,20.72-37.79,26.4-59.72,17.69-21.49-8.53-35.27-30.85-34.32-55.57,1-25.36,15.53-45.59,37.94-52.69s47.12,1.37,59.57,22.81c5.48,9.46,11.39,11.8,20.41,9.74,16.09-3.69,32.52-6.22,48.18-11.4,19.42-6.43,105.08-55.39,114.36-70.44" transform="translate(-496.35 -381.83)"/></g><path class="cls-2" d="M624.34,952c8.9,9.29,11.71,20.71,11.65,33.16-10.52,38.2-13.21,77.06-9.72,116.42,5.36,40.28,19.36,75.9,54.14,100.18a62.85,62.85,0,0,0,36.25,11.77c6.75.06,14.19-.42,18,7.41-1.29,7.54-7.53,8.23-13.24,9.66-21.1,7.39-42,15.25-63.36,22-23.89,10.25-44.27,25.68-63.44,43-4.59,4.13-8.65,10.2-16.46,6.88-52.64-50.31-78.93-112.17-81.5-184.79-1.68-47.66,4.11-94.2,13.82-140.92,10.93-52.62,17.46-106.17,25.79-159.33,12.79-81.62,24.49-163.83,53.86-241.32,37-97.68,107.61-162.8,209.58-185.87,121.7-27.55,221.27,14.05,298.61,111,35.36,44.32,51.54,96.69,64.52,150.92,22.51,94,34.4,189.86,49.52,285.14,9.82,61.88,20.37,123.7,20.37,186.71,0,28-2.91,55.45-11,82.46-13.62,45.55-38.78,82.91-76,112.23-7,1.76-9.6-4.24-13-8.06-21.44-23.85-45.48-44.12-75.45-56.47-20.1-9.58-41.43-15.53-62.72-21.62-5.69-2-11.72-2.91-17.29-5.19-4.47-1.83-10.32-2.58-10-9.59,4.72-5,11-4.62,16.9-4.39,15.25.62,30.45-1.21,45.65-1.64,21.23-.6,36.48-14.27,48-31.69,19-28.94,25.9-61.1,24.61-95.35-.92-35.76-5.91-71.08-11.11-106.39-.74-5.08-.66-10.19,1.54-15a17.53,17.53,0,0,1,2.57-3.12c-2.57,3.12,4.91-7.08,7.7-9.75,4.48-4.3,10.4-6.37,10.62-13.51a15.31,15.31,0,0,1,2.43-7.73c7.28-11.35,11.38-24,14.13-37.22,5.77-27.77,8.74-55.79,7.57-84.17-.25-6-.51-13-6.11-16.23-6.14-3.53-11.39,1.57-16.06,5.18-7.75,6-14.87,10.6-20.43-2.36-1.42-3.32-5.23-3.59-8.32-4.33a40.28,40.28,0,0,1-23-14.6c-4.8-8.59-12.92-9.44-21.5-9.47-29.45-.11-59,.86-88.19-4-16.25-2.71-32.85-3.46-48.56-8.95-11.74-12.2-26.41-20-41.63-26.61-53.2-23.25-103.77-51.12-151-85-10.08-7.23-20.68-13.71-33.77-18.62-.83,9.75,6.2,16.53,5.72,24.8,1.74,37-3.52,73.17-14.71,108.26-6.94,21.79-17.23,41.67-44.46,43.35-6.38.4-6.24,5.74-7.15,10.22-.74,3.61-1.11,8.27-5,9.19-5.06,1.17-6.78-4-8.81-7.35-4.08-6.83-8.29-13.46-15.45-17.46-9.53-5.34-16.26-3-16.67,7.6-1.76,44.68-1.32,89.18,22.24,129.55" transform="translate(-496.35 -381.83)"/><path class="cls-2" d="M967.11,1218.36a274.05,274.05,0,0,1-41.82-11.44c-1.84-15.06-.29-30.17-.85-45.25-.34-9.48,1.5-19.13-3.49-28.21-1.81-3.29-.43-7.19,2.77-9.84,27.23-9.88,52.17-23.78,74.35-42.55,25.12,6.24,50.71,1.63,76,3.28,10.88.71,22.17-3.35,32.63,2.61,3,38.1-7.1,73-30,102.89-13.92,18.15-32.1,29.48-58.6,26.74C1001.83,1214.9,984.15,1217.45,967.11,1218.36Z" transform="translate(-496.35 -381.83)"/><path class="cls-2" d="M783.54,1206.63l-49,14.84c-3.49-1.09-6.92-2.84-10.49-3.19-51.48-5.09-82.25-31.55-95.83-83.28-2.69-10.22-6.7-20.33-5.78-31.27,38.58,5,77.34,2.32,116,2.83,4.15,0,8.35.93,11.94-2l33.13,13.35c4.76,6.25,5.93,12.49,3.41,20.54-4,12.86-.85,26.47-1.72,39.72C784.63,1187.62,787.09,1197.31,783.54,1206.63Z" transform="translate(-496.35 -381.83)"/><path class="cls-2" d="M750.44,1104.51c-1.06,6.56-5.77,7.58-11.26,7.57q-49.06,0-98.14,0c-7.54,0-12.73-4.79-18.57-8.34-6.14-18.43-2.93-37.47-2.26-56s5.25-37.21,8.5-55.74c.51-2.93,5.66-6.2,7.26-8.94,9.87,27.4,23.77,51.88,43.68,72A232.94,232.94,0,0,0,750.44,1104.51Z" transform="translate(-496.35 -381.83)"/><path class="cls-2" d="M1106.72,1087c-32.12,6-64.55,1.3-96.8,2.78-6.22.28-11-1.48-11.85-8.67,9.11-9.06,18.34-18,27.31-27.19,27.87-28.53,46-63.19,61.77-99.3,5.14-.32,7.8,2.19,8.23,7.25,3.22,27.42,5.89,54.93,9.9,82.24C1107.39,1058.43,1105.92,1072.68,1106.72,1087Z" transform="translate(-496.35 -381.83)"/><path class="cls-2" d="M786.5,639.34c78,45.16,161.62,75.51,249.55,95" transform="translate(-496.35 -381.83)"/><path class="cls-2" d="M836.7,560.55c66.49,36,137.37,61.33,212,86.78" transform="translate(-496.35 -381.83)"/><path class="cls-2" d="M738.56,533.36c44.51,40.07,96.72,69.2,145.7,102.93" transform="translate(-496.35 -381.83)"/></svg>